<svg width="20" height="20" viewBox="0 0 20 20" fill="none" xmlns="http://www.w3.org/2000/svg">
<path d="M16.6667 6.66665L10 10.8333L3.33335 6.66665V4.99998L10 9.16665L16.6667 4.99998M16.6667 3.33331H3.33335C2.40835 3.33331 1.66669 4.07498 1.66669 4.99998V15C1.66669 15.442 1.84228 15.8659 2.15484 16.1785C2.4674 16.4911 2.89133 16.6666 3.33335 16.6666H16.6667C17.1087 16.6666 17.5326 16.4911 17.8452 16.1785C18.1578 15.8659 18.3334 15.442 18.3334 15V4.99998C18.3334 4.55795 18.1578 4.13403 17.8452 3.82147C17.5326 3.50891 17.1087 3.33331 16.6667 3.33331Z" fill="#102694"/>
</svg>
