<svg width="20" height="20" viewBox="0 0 20 20" fill="none" xmlns="http://www.w3.org/2000/svg">
<g clip-path="url(#clip0_107_183)">
<path fill-rule="evenodd" clip-rule="evenodd" d="M7.21284 0.394288C5.2796 0.956621 3.5609 2.08894 2.28126 3.64332C1.00161 5.19771 0.220504 7.1019 0.039978 9.10715H4.61141C4.87642 6.05579 5.76113 3.09058 7.21141 0.39286L7.21284 0.394288ZM4.61141 10.8929H0.039978C0.220127 12.8982 1.0009 14.8026 2.28029 16.3572C3.55969 17.9118 5.27823 19.0445 7.21141 19.6071C5.76113 16.9094 4.87642 13.9442 4.61141 10.8929ZM9.50284 19.9886C7.76969 17.2421 6.70769 14.1261 6.40284 10.8929H13.5957C13.2908 14.1261 12.2288 17.2421 10.4957 19.9886C10.1649 20.0046 9.83359 20.0046 9.50284 19.9886ZM12.7885 19.6057C14.7215 19.0431 16.4399 17.9107 17.7193 16.3564C18.9987 14.802 19.7796 12.8979 19.96 10.8929H15.3886C15.1235 13.9442 14.2388 16.9094 12.7885 19.6071V19.6057ZM15.3886 9.10715H19.96C19.7798 7.10182 18.9991 5.19745 17.7197 3.6428C16.4403 2.08816 14.7217 0.955525 12.7885 0.39286C14.2389 3.09056 15.1236 6.05579 15.3886 9.10715ZM9.50284 0.011431C9.83407 -0.00478688 10.1659 -0.00478688 10.4971 0.011431C12.2298 2.75802 13.2913 5.87402 13.5957 9.10715H6.40426C6.71426 5.85429 7.77855 2.73572 9.50284 0.011431Z" fill="#102694"/>
</g>
<defs>
<clipPath id="clip0_107_183">
<rect width="20" height="20" fill="white"/>
</clipPath>
</defs>
</svg>
