<svg width="40" height="40" viewBox="0 0 40 40" fill="none" xmlns="http://www.w3.org/2000/svg">
<path d="M20.3238 38.7887L20.4138 38.8337L20.3897 39.4093L20.2868 39.457L20.3238 38.7887ZM20.8225 39.5152L20.7534 39.466L20.7729 38.9747L20.7772 38.9759L20.8121 38.9859L20.8478 38.9787L20.8738 38.9735L20.8933 39.4649L20.8225 39.5152ZM21.36 39.4586L21.2554 39.4107L21.2313 38.835L21.323 38.7887L21.36 39.4586Z" stroke="black" stroke-width="0.3"/>
<path d="M5.66677 25.6664L5.66718 25.6661C6.16388 25.3271 6.72143 25.0878 7.30884 24.9611C7.90536 23.7945 8.78165 22.7753 9.72417 21.9413C9.27633 21.8601 8.81261 21.8185 8.33286 21.8167C6.76151 21.8158 5.22668 22.2905 3.93026 23.1785C2.87624 23.9137 1.81675 25.1143 1.81675 26.5483C1.81675 27.6463 2.368 28.3745 3.17204 28.8658C3.98328 29.3614 5.0467 29.611 6.04016 29.7326L6.52965 29.7822L6.77061 29.7994C6.60672 29.2689 6.51675 28.6995 6.51675 28.095C6.51668 27.6428 6.56518 27.192 6.66131 26.7504C6.08839 26.6999 5.60815 26.6186 5.23731 26.5071L5.66677 25.6664ZM5.66677 25.6664L5.45344 25.8131L5.45341 25.813M5.66677 25.6664L5.45341 25.813M5.45341 25.813L5.45042 25.8152M5.45341 25.813L5.45042 25.8152M5.45042 25.8152C5.34505 25.8915 5.21427 25.9938 5.13664 26.0919M5.45042 25.8152L5.13664 26.0919M5.13664 26.0919C5.10214 26.1355 5.05066 26.2112 5.05585 26.3015M5.13664 26.0919L5.05585 26.3015M5.05585 26.3015C5.05888 26.3543 5.08094 26.4032 5.11952 26.4411M5.05585 26.3015L5.11952 26.4411M5.11952 26.4411C5.15483 26.4758 5.19777 26.4953 5.23687 26.507L5.11952 26.4411ZM30.2388 30.9344L30.2386 30.9346C29.4984 31.6149 28.5256 32.0614 27.5101 32.3681L27.5099 32.3681C25.4801 32.9832 22.7966 33.1833 20.0001 33.1833C17.2036 33.1833 14.5201 32.9832 12.4902 32.3681L12.4901 32.3681C11.4746 32.0614 10.5017 31.6149 9.75983 30.9345C8.97878 30.2178 8.48342 29.2566 8.48342 28.0967C8.48342 25.9722 10.1035 23.9681 12.0609 22.603C14.1122 21.1729 16.9109 20.15 20.0001 20.15C23.0893 20.15 25.888 21.1729 27.9394 22.6014C29.8967 23.9665 31.5168 25.9706 31.5168 28.095C31.5168 29.255 31.023 30.2162 30.2388 30.9344ZM12.7341 29.2588L12.7341 29.2588L12.7383 29.2603L13.0799 29.377L13.0799 29.377L13.0845 29.3784L13.3679 29.4651L13.3684 29.4653C14.9568 29.9452 17.2749 30.15 20.0001 30.15C22.5176 30.15 24.6841 29.975 26.2508 29.5719L26.2508 29.572L26.2547 29.5709L26.7614 29.4259L26.7614 29.4259L26.7653 29.4247L27.0819 29.3247L27.0819 29.3247L27.0852 29.3236C27.3743 29.225 27.7149 29.0887 27.9855 28.8993C28.2542 28.7112 28.4834 28.449 28.4834 28.095C28.4834 27.771 28.3238 27.3079 27.9668 26.7884C27.6071 26.2649 27.0394 25.6725 26.2026 25.0886L26.1167 25.2117L26.2026 25.0886C24.6355 23.9954 22.4325 23.1833 20.0001 23.1833C17.5677 23.1833 15.3664 23.9937 13.7976 25.0887C12.9607 25.6725 12.393 26.2649 12.0333 26.7884C11.6764 27.3079 11.5167 27.771 11.5167 28.095C11.5167 28.4133 11.7026 28.6579 11.9341 28.8396C12.1656 29.0214 12.4626 29.157 12.7341 29.2588ZM33.2359 29.802L33.2286 29.8025C33.3931 29.2711 33.4834 28.7006 33.4834 28.095V28.0947C33.4825 27.6425 33.4343 27.1919 33.3398 26.7501C33.9114 26.6986 34.3921 26.6186 34.7633 26.507L34.7642 26.5067C34.8297 26.4865 34.9113 26.441 34.9377 26.3442C34.9613 26.2576 34.9248 26.1815 34.898 26.1383C34.8418 26.0476 34.7366 25.957 34.6451 25.8863L34.6452 25.8863L34.6418 25.8838L34.4634 25.7538L34.4635 25.7537L34.4587 25.7504L34.333 25.6661C34.3328 25.666 34.3326 25.6659 34.3325 25.6658C33.8359 25.3269 33.2785 25.0877 32.6913 24.9611C32.0949 23.7947 31.2189 22.7757 30.2765 21.9418C30.7351 21.8589 31.2004 21.817 31.6669 21.8167C33.3743 21.8167 34.9247 22.3812 36.0694 23.1781C37.1221 23.9134 38.1834 25.1125 38.1834 26.5483C38.1834 27.6013 37.6765 28.3132 36.9276 28.8028C36.1716 29.297 35.1714 29.5616 34.2086 29.6996C34.2081 29.6997 34.2076 29.6998 34.2071 29.6999L33.7128 29.7608L33.2359 29.802ZM30.8334 11.8167C31.8987 11.8167 32.9204 12.2399 33.6736 12.9931C34.4269 13.7464 34.8501 14.768 34.8501 15.8333C34.8501 16.8986 34.4269 17.9203 33.6736 18.6735C32.9204 19.4268 31.8987 19.85 30.8334 19.85C29.7681 19.85 28.7465 19.4268 27.9932 18.6735C27.2399 17.9203 26.8167 16.8986 26.8167 15.8333C26.8167 14.768 27.2399 13.7464 27.9932 12.9931C28.7465 12.2399 29.7681 11.8167 30.8334 11.8167ZM9.16675 11.8167C10.232 11.8167 11.2537 12.2399 12.007 12.9931C12.7602 13.7464 13.1834 14.768 13.1834 15.8333C13.1834 16.8986 12.7602 17.9203 12.007 18.6735C11.2537 19.4268 10.232 19.85 9.16675 19.85C8.10146 19.85 7.07981 19.4268 6.32654 18.6735C5.57326 17.9203 5.15008 16.8986 5.15008 15.8333C5.15008 14.768 5.57326 13.7464 6.32654 12.9931C7.07981 12.2399 8.10146 11.8167 9.16675 11.8167ZM20.0001 5.15C21.7284 5.15 23.386 5.83658 24.6081 7.05869C25.8302 8.2808 26.5168 9.93834 26.5168 11.6667C26.5168 13.395 25.8302 15.0525 24.6081 16.2746C23.386 17.4968 21.7284 18.1833 20.0001 18.1833C18.2718 18.1833 16.6142 17.4968 15.3921 16.2746C14.17 15.0525 13.4834 13.395 13.4834 11.6667C13.4834 9.93834 14.17 8.2808 15.3921 7.05869C16.6142 5.83658 18.2718 5.15 20.0001 5.15ZM30.8334 14.85C30.5726 14.85 30.3225 14.9536 30.1381 15.138C29.9537 15.3224 29.8501 15.5725 29.8501 15.8333C29.8501 16.0941 29.9537 16.3442 30.1381 16.5287C30.3225 16.7131 30.5726 16.8167 30.8334 16.8167C31.0942 16.8167 31.3443 16.7131 31.5287 16.5287C31.7132 16.3442 31.8167 16.0941 31.8167 15.8333C31.8167 15.5725 31.7132 15.3224 31.5287 15.138C31.3443 14.9536 31.0942 14.85 30.8334 14.85ZM9.16675 14.85C8.90595 14.85 8.65584 14.9536 8.47143 15.138C8.28702 15.3224 8.18341 15.5725 8.18341 15.8333C8.18341 16.0941 8.28702 16.3442 8.47143 16.5287C8.65584 16.7131 8.90595 16.8167 9.16675 16.8167C9.42754 16.8167 9.67766 16.7131 9.86207 16.5287C10.0465 16.3442 10.1501 16.0941 10.1501 15.8333C10.1501 15.5725 10.0465 15.3224 9.86207 15.138C9.67766 14.9536 9.42754 14.85 9.16675 14.85ZM20.0001 8.18333C19.0762 8.18333 18.1902 8.55033 17.537 9.20358C16.8837 9.85683 16.5167 10.7428 16.5167 11.6667C16.5167 12.5905 16.8837 13.4765 17.537 14.1298C18.1902 14.783 19.0762 15.15 20.0001 15.15C20.9239 15.15 21.8099 14.783 22.4632 14.1298C23.1164 13.4765 23.4834 12.5905 23.4834 11.6667C23.4834 10.7428 23.1164 9.85683 22.4632 9.20358C21.8099 8.55033 20.9239 8.18333 20.0001 8.18333Z" fill="white" stroke="black" stroke-width="0.3"/>
</svg>
