<svg width="40" height="40" viewBox="0 0 40 40" fill="none" xmlns="http://www.w3.org/2000/svg">
<path d="M33.3333 16.8799C33.3333 10.4933 33.3332 7.30159 31.3799 5.31659C29.4266 3.33159 26.2849 3.33325 19.9999 3.33325H16.6666C10.3816 3.33325 7.23825 3.33325 5.28659 5.31659C3.33492 7.29992 3.33325 10.4933 3.33325 16.8799C3.33325 23.2666 3.33325 26.4583 5.28659 28.4433C6.06992 29.2383 7.04325 29.7149 8.33325 29.9999" stroke="white" stroke-width="3" stroke-linecap="round" stroke-linejoin="round"/>
<path d="M36.6666 29.1665C36.6666 26.0415 36.6666 24.4798 35.8716 23.3832C35.6146 23.0295 35.3036 22.7185 34.9499 22.4615C33.8533 21.6665 32.2916 21.6665 29.1666 21.6665H20.8333C17.7083 21.6665 16.1466 21.6665 15.0499 22.4615C14.6962 22.7185 14.3852 23.0295 14.1283 23.3832C13.3333 24.4815 13.3333 26.0432 13.3333 29.1665C13.3333 32.2898 13.3333 33.8532 14.1283 34.9498C14.3857 35.3036 14.6973 35.6147 15.0516 35.8715C16.1466 36.6665 17.7083 36.6665 20.8333 36.6665H29.1666C32.2916 36.6665 33.8533 36.6665 34.9499 35.8715C35.3036 35.6145 35.6146 35.3035 35.8716 34.9498C36.6666 33.8532 36.6666 32.2915 36.6666 29.1665Z" stroke="white" stroke-width="3" stroke-linecap="round" stroke-linejoin="round"/>
<path d="M27.4998 26.6667L29.0332 27.9883C29.6782 28.5433 29.9998 28.8217 29.9998 29.1667C29.9998 29.5117 29.6782 29.79 29.0332 30.345L27.4998 31.6667M22.4998 26.6667L20.9665 27.9883C20.3215 28.5433 19.9998 28.8217 19.9998 29.1667C19.9998 29.5117 20.3215 29.79 20.9665 30.345L22.4998 31.6667M4.1665 10H32.4998" stroke="white" stroke-width="3" stroke-linecap="round" stroke-linejoin="round"/>
</svg>
