<svg width="38" height="32" viewBox="0 0 38 32" fill="none" xmlns="http://www.w3.org/2000/svg">
<path d="M37.75 16.3749C37.7483 14.7191 37.2778 13.0977 36.393 11.6983C35.5081 10.2988 34.245 9.17852 32.75 8.46707V8.24988C32.7485 6.63928 32.2286 5.07193 31.2673 3.77974C30.3059 2.48755 28.954 1.53917 27.4118 1.07492C25.8696 0.610671 24.2188 0.655222 22.7039 1.20198C21.1889 1.74874 19.8902 2.76865 19 4.11082C18.1097 2.76865 16.811 1.74874 15.296 1.20198C13.7811 0.655222 12.1303 0.610671 10.5881 1.07492C9.04587 1.53917 7.69404 2.48755 6.73266 3.77974C5.77127 5.07193 5.25139 6.63928 5.24995 8.24988V8.46707C3.7536 9.17657 2.48932 10.2962 1.60403 11.6957C0.718733 13.0952 0.248779 14.7173 0.248779 16.3733C0.248779 18.0294 0.718733 19.6514 1.60403 21.0509C2.48932 22.4505 3.7536 23.5701 5.24995 24.2796V24.4999C5.25139 26.1105 5.77127 27.6778 6.73266 28.97C7.69404 30.2622 9.04587 31.2106 10.5881 31.6748C12.1303 32.1391 13.7811 32.0945 15.296 31.5478C16.811 31.001 18.1097 29.9811 19 28.6389C19.8902 29.9811 21.1889 31.001 22.7039 31.5478C24.2188 32.0945 25.8696 32.1391 27.4118 31.6748C28.954 31.2106 30.3059 30.2622 31.2673 28.97C32.2286 27.6778 32.7485 26.1105 32.75 24.4999V24.2796C34.2448 23.5686 35.5077 22.4489 36.3926 21.05C37.2775 19.6511 37.7481 18.0302 37.75 16.3749ZM12.75 29.4999C11.5171 29.4997 10.3277 29.044 9.4103 28.2204C8.49291 27.3967 7.91218 26.2631 7.77964 25.0374C8.18387 25.095 8.59164 25.1242 8.99995 25.1249H10.25C10.5815 25.1249 10.8994 24.9932 11.1338 24.7588C11.3683 24.5243 11.5 24.2064 11.5 23.8749C11.5 23.5434 11.3683 23.2254 11.1338 22.991C10.8994 22.7566 10.5815 22.6249 10.25 22.6249H8.99995C7.52426 22.6266 6.09556 22.1061 4.96679 21.1556C3.83802 20.205 3.082 18.8857 2.83257 17.4313C2.58315 15.9768 2.85641 14.481 3.60398 13.2087C4.35154 11.9364 5.52519 10.9696 6.91714 10.4796C7.16069 10.3933 7.37154 10.2338 7.52067 10.0228C7.66981 9.81181 7.74991 9.55981 7.74995 9.30144V8.24988C7.74995 6.9238 8.27674 5.65203 9.21442 4.71434C10.1521 3.77666 11.4239 3.24988 12.75 3.24988C14.076 3.24988 15.3478 3.77666 16.2855 4.71434C17.2232 5.65203 17.75 6.9238 17.75 8.24988V18.9155C16.3773 17.681 14.5961 16.9985 12.75 16.9999C12.4184 16.9999 12.1005 17.1316 11.8661 17.366C11.6316 17.6004 11.5 17.9184 11.5 18.2499C11.5 18.5814 11.6316 18.8993 11.8661 19.1338C12.1005 19.3682 12.4184 19.4999 12.75 19.4999C14.076 19.4999 15.3478 20.0267 16.2855 20.9643C17.2232 21.902 17.75 23.1738 17.75 24.4999C17.75 25.826 17.2232 27.0977 16.2855 28.0354C15.3478 28.9731 14.076 29.4999 12.75 29.4999ZM29 22.6249H27.75C27.4184 22.6249 27.1005 22.7566 26.8661 22.991C26.6316 23.2254 26.5 23.5434 26.5 23.8749C26.5 24.2064 26.6316 24.5243 26.8661 24.7588C27.1005 24.9932 27.4184 25.1249 27.75 25.1249H29C29.4083 25.1242 29.816 25.095 30.2203 25.0374C30.1164 25.9978 29.7366 26.9076 29.1267 27.6567C28.5168 28.4058 27.7029 28.9622 26.7835 29.2587C25.8641 29.5551 24.8785 29.5788 23.9459 29.327C23.0133 29.0752 22.1735 28.5586 21.5283 27.8397C20.883 27.1208 20.4598 26.2304 20.3099 25.2761C20.1599 24.3218 20.2896 23.3445 20.6833 22.4623C21.0769 21.5801 21.7177 20.8309 22.5281 20.3052C23.3386 19.7794 24.2839 19.4997 25.25 19.4999C25.5815 19.4999 25.8994 19.3682 26.1338 19.1338C26.3683 18.8993 26.5 18.5814 26.5 18.2499C26.5 17.9184 26.3683 17.6004 26.1338 17.366C25.8994 17.1316 25.5815 16.9999 25.25 16.9999C23.4038 16.9985 21.6226 17.681 20.25 18.9155V8.24988C20.25 6.9238 20.7767 5.65203 21.7144 4.71434C22.6521 3.77666 23.9239 3.24988 25.25 3.24988C26.576 3.24988 27.8478 3.77666 28.7855 4.71434C29.7232 5.65203 30.25 6.9238 30.25 8.24988V9.30144C30.25 9.55981 30.3301 9.81181 30.4792 10.0228C30.6284 10.2338 30.8392 10.3933 31.0828 10.4796C32.4747 10.9696 33.6484 11.9364 34.3959 13.2087C35.1435 14.481 35.4168 15.9768 35.1673 17.4313C34.9179 18.8857 34.1619 20.205 33.0331 21.1556C31.9043 22.1061 30.4756 22.6266 29 22.6249ZM31.5 14.4999C31.5 14.8314 31.3683 15.1493 31.1338 15.3838C30.8994 15.6182 30.5815 15.7499 30.25 15.7499H29.625C28.1331 15.7499 26.7024 15.1572 25.6475 14.1024C24.5926 13.0475 24 11.6167 24 10.1249V9.49988C24 9.16836 24.1316 8.85042 24.3661 8.616C24.6005 8.38157 24.9184 8.24988 25.25 8.24988C25.5815 8.24988 25.8994 8.38157 26.1338 8.616C26.3683 8.85042 26.5 9.16836 26.5 9.49988V10.1249C26.5 10.9537 26.8292 11.7485 27.4152 12.3346C28.0013 12.9206 28.7962 13.2499 29.625 13.2499H30.25C30.5815 13.2499 30.8994 13.3816 31.1338 13.616C31.3683 13.8504 31.5 14.1684 31.5 14.4999ZM8.37495 15.7499H7.74995C7.41843 15.7499 7.10049 15.6182 6.86607 15.3838C6.63165 15.1493 6.49995 14.8314 6.49995 14.4999C6.49995 14.1684 6.63165 13.8504 6.86607 13.616C7.10049 13.3816 7.41843 13.2499 7.74995 13.2499H8.37495C9.20375 13.2499 9.99861 12.9206 10.5847 12.3346C11.1707 11.7485 11.5 10.9537 11.5 10.1249V9.49988C11.5 9.16836 11.6316 8.85042 11.8661 8.616C12.1005 8.38157 12.4184 8.24988 12.75 8.24988C13.0815 8.24988 13.3994 8.38157 13.6338 8.616C13.8683 8.85042 14 9.16836 14 9.49988V10.1249C14 11.6167 13.4073 13.0475 12.3524 14.1024C11.2975 15.1572 9.86679 15.7499 8.37495 15.7499Z" fill="white"/>
</svg>
